<svg viewBox="0 0 900 620" xmlns="http://www.w3.org/2000/svg" role="img" font-family="Helvetica, Arial, sans-serif">
<title>PINAX panel: ARCHITECTURE</title>
<desc>NSQ-Wave panel for ARCHITECTURE: tool-sprawl fragmentation gap, source-bound evidence, SKIPJACK substrate answer.</desc>
<rect width="900" height="620" fill="#0F1419"/>
<rect x="0" y="0" width="6" height="620" fill="#00D9FF"/>
<path d="M40 40 q10 -16 20 0 t20 0 t20 0 t20 0 t20 0" fill="none" stroke="#00D9FF" stroke-width="2" opacity="0.5"/>
<text x="40" y="92" fill="#E8EEFC" font-size="26" font-weight="700">ARCHITECTURE</text>
<text x="40" y="118" fill="#8AA0C8" font-size="14.5">Substrate-as-Core Architecture · above Layer 7</text>
<rect x="690" y="64" width="170" height="30" rx="15" fill="#1A1F2E" stroke="#25324C"/>
<text x="775" y="84" fill="#00D9FF" font-size="13" text-anchor="middle" letter-spacing="1">SYNTHESIS</text>
<line x1="40" y1="140" x2="860" y2="140" stroke="#25324C" stroke-width="1"/>
<text x="40" y="172" fill="#00D9FF" font-size="13" letter-spacing="2">DOCUMENTED PROBLEM</text>
<text x="40" y="200" fill="#E8EEFC" font-size="18">Security is bought as point tools, each with its own trust</text>
<text x="40" y="226" fill="#E8EEFC" font-size="18">model. The <tspan fill="#00D9FF" font-weight="700">seams between them</tspan> are the attack surface, and</text>
<text x="40" y="252" fill="#E8EEFC" font-size="18">the whole sprawl quietly assumes a network that holds.</text>
<rect x="40" y="278" width="820" height="86" rx="10" fill="#1A1F2E" stroke="#00D9FF" stroke-width="1.5"/>
<text x="60" y="316" fill="#E8EEFC" font-size="22" font-weight="700">Zero trust re-implemented <tspan fill="#00D9FF">N times</tspan></text>
<text x="60" y="346" fill="#E8EEFC" font-size="22" font-weight="700">is zero trust implemented <tspan fill="#00D9FF">zero times.</tspan></text>
<text x="840" y="353" fill="#8AA0C8" font-size="11" text-anchor="end">src: nsq:agentic-zero-trust (Zenodo 20180231)</text>
<text x="40" y="396" fill="#00D9FF" font-size="13" letter-spacing="2">SOURCE-BOUND EVIDENCE</text>
<rect x="40" y="408" width="265" height="92" rx="8" fill="#1A1F2E" stroke="#25324C"/>
<text x="56" y="434" fill="#E8EEFC" font-size="14" font-weight="700">Measured tool sprawl</text>
<text x="56" y="456" fill="#8AA0C8" font-size="12.5">83 tools from 29 vendors;</text>
<text x="56" y="473" fill="#8AA0C8" font-size="12.5">large firms past 130.</text>
<text x="56" y="492" fill="#00D9FF" font-size="11">[ISACA Now Blog 2025]</text>
<rect x="318" y="408" width="265" height="92" rx="8" fill="#1A1F2E" stroke="#25324C"/>
<text x="334" y="434" fill="#E8EEFC" font-size="14" font-weight="700">The agentic fitness gap</text>
<text x="334" y="456" fill="#8AA0C8" font-size="12.5">Static "certify-once" rules</text>
<text x="334" y="473" fill="#8AA0C8" font-size="12.5">fail machine-speed agents.</text>
<text x="334" y="492" fill="#00D9FF" font-size="11">[arXiv:2510.25863]</text>
<rect x="596" y="408" width="264" height="92" rx="8" fill="#1A1F2E" stroke="#25324C"/>
<text x="612" y="434" fill="#E8EEFC" font-size="14" font-weight="700">Consolidation imperative</text>
<text x="612" y="456" fill="#8AA0C8" font-size="12.5">97% of firms are cutting the</text>
<text x="612" y="473" fill="#8AA0C8" font-size="12.5">stack; market ~42% CAGR.</text>
<text x="612" y="492" fill="#00D9FF" font-size="11">[MarketsandMarkets 2026]</text>
<rect x="40" y="516" width="820" height="58" rx="10" fill="#00D9FF"/>
<text x="60" y="542" fill="#0F1419" font-size="14" font-weight="700" letter-spacing="1">SKIPJACK ANSWERS</text>
<text x="60" y="563" fill="#0F1419" font-size="15">One custody-and-freshness substrate; zero trust enforced once in one lane; every product line inherits the posture by construction.</text>
<text x="40" y="600" fill="#8AA0C8" font-size="11">ARCHITECTURE a1f3-arch-0F14 · one lane · source-bound</text>
<text x="860" y="600" fill="#8AA0C8" font-size="11" text-anchor="end">Non Sequitur Publishing — Confidential</text>
</svg>
